<svg width="135" height="26" viewBox="0 0 135 26" fill="none" xmlns="http://www.w3.org/2000/svg">
<path d="M5.01002 25V15.37L0.27002 0.699994H4.92002L7.53002 9.25L9.96002 0.699994H14.46L9.78002 15.37V25H5.01002Z" fill="#A276FF"/>
<path d="M5.01002 25V15.37L0.27002 0.699994H4.92002L7.53002 9.25L9.96002 0.699994H14.46L9.78002 15.37V25H5.01002Z" fill="#A276FF"/>
<path d="M22.9362 25.33C21.1562 25.33 19.7462 25.01 18.7062 24.37C17.6662 23.73 16.9162 22.82 16.4562 21.64C16.0162 20.44 15.7962 19.01 15.7962 17.35V8.29C15.7962 6.63 16.0162 5.20999 16.4562 4.02999C16.9162 2.85 17.6662 1.95 18.7062 1.33C19.7462 0.709995 21.1562 0.399995 22.9362 0.399995C24.7362 0.399995 26.1562 0.719995 27.1962 1.35999C28.2562 1.98 29.0062 2.88 29.4462 4.06C29.9062 5.22 30.1362 6.63 30.1362 8.29V17.35C30.1362 19.01 29.9062 20.44 29.4462 21.64C29.0062 22.82 28.2562 23.73 27.1962 24.37C26.1562 25.01 24.7362 25.33 22.9362 25.33ZM22.9362 21.76C23.5762 21.76 24.0462 21.62 24.3462 21.34C24.6462 21.04 24.8462 20.65 24.9462 20.17C25.0462 19.67 25.0962 19.14 25.0962 18.58V7.09C25.0962 6.53 25.0462 6.01 24.9462 5.52999C24.8462 5.05 24.6462 4.67 24.3462 4.39C24.0462 4.09 23.5762 3.94 22.9362 3.94C22.3362 3.94 21.8862 4.09 21.5862 4.39C21.2862 4.67 21.0862 5.05 20.9862 5.52999C20.8862 6.01 20.8362 6.53 20.8362 7.09V18.58C20.8362 19.14 20.8762 19.67 20.9562 20.17C21.0562 20.65 21.2562 21.04 21.5562 21.34C21.8562 21.62 22.3162 21.76 22.9362 21.76Z" fill="#A276FF"/>
<path d="M22.9362 25.33C21.1562 25.33 19.7462 25.01 18.7062 24.37C17.6662 23.73 16.9162 22.82 16.4562 21.64C16.0162 20.44 15.7962 19.01 15.7962 17.35V8.29C15.7962 6.63 16.0162 5.20999 16.4562 4.02999C16.9162 2.85 17.6662 1.95 18.7062 1.33C19.7462 0.709995 21.1562 0.399995 22.9362 0.399995C24.7362 0.399995 26.1562 0.719995 27.1962 1.35999C28.2562 1.98 29.0062 2.88 29.4462 4.06C29.9062 5.22 30.1362 6.63 30.1362 8.29V17.35C30.1362 19.01 29.9062 20.44 29.4462 21.64C29.0062 22.82 28.2562 23.73 27.1962 24.37C26.1562 25.01 24.7362 25.33 22.9362 25.33ZM22.9362 21.76C23.5762 21.76 24.0462 21.62 24.3462 21.34C24.6462 21.04 24.8462 20.65 24.9462 20.17C25.0462 19.67 25.0962 19.14 25.0962 18.58V7.09C25.0962 6.53 25.0462 6.01 24.9462 5.52999C24.8462 5.05 24.6462 4.67 24.3462 4.39C24.0462 4.09 23.5762 3.94 22.9362 3.94C22.3362 3.94 21.8862 4.09 21.5862 4.39C21.2862 4.67 21.0862 5.05 20.9862 5.52999C20.8862 6.01 20.8362 6.53 20.8362 7.09V18.58C20.8362 19.14 20.8762 19.67 20.9562 20.17C21.0562 20.65 21.2562 21.04 21.5562 21.34C21.8562 21.62 22.3162 21.76 22.9362 21.76Z" fill="#A276FF"/>
<path d="M40.2813 25.33C38.4413 25.33 37.0113 25.02 35.9913 24.4C34.9713 23.76 34.2513 22.85 33.8313 21.67C33.4313 20.47 33.2313 19.02 33.2313 17.32V0.699994H38.1213V18.01C38.1213 18.61 38.1613 19.2 38.2413 19.78C38.3413 20.36 38.5413 20.83 38.8413 21.19C39.1613 21.55 39.6413 21.73 40.2813 21.73C40.9413 21.73 41.4213 21.55 41.7213 21.19C42.0413 20.83 42.2413 20.36 42.3214 19.78C42.4014 19.2 42.4413 18.61 42.4413 18.01V0.699994H47.3313V17.32C47.3313 19.02 47.1213 20.47 46.7013 21.67C46.3013 22.85 45.5913 23.76 44.5713 24.4C43.5513 25.02 42.1213 25.33 40.2813 25.33Z" fill="#A276FF"/>
<path d="M40.2813 25.33C38.4413 25.33 37.0113 25.02 35.9913 24.4C34.9713 23.76 34.2513 22.85 33.8313 21.67C33.4313 20.47 33.2313 19.02 33.2313 17.32V0.699994H38.1213V18.01C38.1213 18.61 38.1613 19.2 38.2413 19.78C38.3413 20.36 38.5413 20.83 38.8413 21.19C39.1613 21.55 39.6413 21.73 40.2813 21.73C40.9413 21.73 41.4213 21.55 41.7213 21.19C42.0413 20.83 42.2413 20.36 42.3214 19.78C42.4014 19.2 42.4413 18.61 42.4413 18.01V0.699994H47.3313V17.32C47.3313 19.02 47.1213 20.47 46.7013 21.67C46.3013 22.85 45.5913 23.76 44.5713 24.4C43.5513 25.02 42.1213 25.33 40.2813 25.33Z" fill="#A276FF"/>
<path d="M50.7851 25V0.699994H57.0851C58.7251 0.699994 60.1251 0.889995 61.2851 1.27C62.4651 1.62999 63.3651 2.27999 63.9851 3.22C64.6251 4.16 64.9451 5.46 64.9451 7.12C64.9451 8.12 64.8551 9.01 64.6751 9.79C64.5151 10.55 64.2151 11.22 63.7751 11.8C63.3551 12.36 62.7551 12.81 61.9751 13.15L65.3351 25H60.2651L57.4751 13.99H55.7351V25H50.7851ZM55.7351 11.05H57.1751C57.9751 11.05 58.6051 10.92 59.0651 10.66C59.5251 10.4 59.8451 10.01 60.0251 9.49C60.2251 8.95 60.3251 8.29 60.3251 7.51C60.3251 6.39 60.1151 5.53999 59.6951 4.96C59.2951 4.36 58.5351 4.06 57.4151 4.06H55.7351V11.05Z" fill="#A276FF"/>
<path d="M50.7851 25V0.699994H57.0851C58.7251 0.699994 60.1251 0.889995 61.2851 1.27C62.4651 1.62999 63.3651 2.27999 63.9851 3.22C64.6251 4.16 64.9451 5.46 64.9451 7.12C64.9451 8.12 64.8551 9.01 64.6751 9.79C64.5151 10.55 64.2151 11.22 63.7751 11.8C63.3551 12.36 62.7551 12.81 61.9751 13.15L65.3351 25H60.2651L57.4751 13.99H55.7351V25H50.7851ZM55.7351 11.05H57.1751C57.9751 11.05 58.6051 10.92 59.0651 10.66C59.5251 10.4 59.8451 10.01 60.0251 9.49C60.2251 8.95 60.3251 8.29 60.3251 7.51C60.3251 6.39 60.1151 5.53999 59.6951 4.96C59.2951 4.36 58.5351 4.06 57.4151 4.06H55.7351V11.05Z" fill="#A276FF"/>
<path d="M68.2453 25V0.699994H73.6153V21.37H79.1953V25H68.2453Z" fill="#A276FF"/>
<path d="M68.2453 25V0.699994H73.6153V21.37H79.1953V25H68.2453Z" fill="#A276FF"/>
<path d="M89.4753 25.36C87.6552 25.36 86.2153 25.04 85.1553 24.4C84.0953 23.76 83.3353 22.84 82.8753 21.64C82.4153 20.44 82.1852 19.01 82.1852 17.35V8.31999C82.1852 6.64 82.4153 5.20999 82.8753 4.02999C83.3353 2.85 84.0953 1.95 85.1553 1.33C86.2153 0.689995 87.6552 0.369995 89.4753 0.369995C91.3152 0.369995 92.7653 0.689995 93.8253 1.33C94.9053 1.95 95.6753 2.85 96.1353 4.02999C96.5953 5.20999 96.8252 6.64 96.8252 8.31999V17.35C96.8252 19.01 96.5953 20.44 96.1353 21.64C95.6753 22.84 94.9053 23.76 93.8253 24.4C92.7653 25.04 91.3152 25.36 89.4753 25.36ZM89.4753 21.55C90.0353 21.55 90.4453 21.41 90.7053 21.13C90.9653 20.85 91.1353 20.49 91.2153 20.05C91.2953 19.61 91.3353 19.16 91.3353 18.7V7C91.3353 6.52 91.2953 6.07 91.2153 5.64999C91.1353 5.20999 90.9653 4.84999 90.7053 4.56999C90.4453 4.28999 90.0353 4.14999 89.4753 4.14999C88.9552 4.14999 88.5653 4.28999 88.3053 4.56999C88.0453 4.84999 87.8752 5.20999 87.7952 5.64999C87.7152 6.07 87.6753 6.52 87.6753 7V18.7C87.6753 19.16 87.7053 19.61 87.7653 20.05C87.8453 20.49 88.0053 20.85 88.2453 21.13C88.5053 21.41 88.9152 21.55 89.4753 21.55Z" fill="#A276FF"/>
<path d="M89.4753 25.36C87.6552 25.36 86.2153 25.04 85.1553 24.4C84.0953 23.76 83.3353 22.84 82.8753 21.64C82.4153 20.44 82.1852 19.01 82.1852 17.35V8.31999C82.1852 6.64 82.4153 5.20999 82.8753 4.02999C83.3353 2.85 84.0953 1.95 85.1553 1.33C86.2153 0.689995 87.6552 0.369995 89.4753 0.369995C91.3152 0.369995 92.7653 0.689995 93.8253 1.33C94.9053 1.95 95.6753 2.85 96.1353 4.02999C96.5953 5.20999 96.8252 6.64 96.8252 8.31999V17.35C96.8252 19.01 96.5953 20.44 96.1353 21.64C95.6753 22.84 94.9053 23.76 93.8253 24.4C92.7653 25.04 91.3152 25.36 89.4753 25.36ZM89.4753 21.55C90.0353 21.55 90.4453 21.41 90.7053 21.13C90.9653 20.85 91.1353 20.49 91.2153 20.05C91.2953 19.61 91.3353 19.16 91.3353 18.7V7C91.3353 6.52 91.2953 6.07 91.2153 5.64999C91.1353 5.20999 90.9653 4.84999 90.7053 4.56999C90.4453 4.28999 90.0353 4.14999 89.4753 4.14999C88.9552 4.14999 88.5653 4.28999 88.3053 4.56999C88.0453 4.84999 87.8752 5.20999 87.7952 5.64999C87.7152 6.07 87.6753 6.52 87.6753 7V18.7C87.6753 19.16 87.7053 19.61 87.7653 20.05C87.8453 20.49 88.0053 20.85 88.2453 21.13C88.5053 21.41 88.9152 21.55 89.4753 21.55Z" fill="#A276FF"/>
<path d="M107.773 25.36C106.093 25.36 104.763 25.01 103.783 24.31C102.823 23.61 102.133 22.63 101.713 21.37C101.313 20.09 101.113 18.62 101.113 16.96V8.8C101.113 7.07999 101.333 5.59 101.773 4.33C102.213 3.07 102.963 2.1 104.023 1.42C105.103 0.719995 106.563 0.369995 108.403 0.369995C110.203 0.369995 111.613 0.669995 112.633 1.27C113.673 1.87 114.413 2.7 114.853 3.76C115.293 4.82 115.513 6.06 115.513 7.47999V9.04H110.263V7.05999C110.263 6.54 110.223 6.06 110.143 5.62C110.083 5.18 109.923 4.83 109.663 4.56999C109.423 4.28999 109.023 4.14999 108.463 4.14999C107.883 4.14999 107.463 4.31 107.203 4.63C106.943 4.93 106.773 5.31 106.693 5.77C106.633 6.23 106.603 6.71 106.603 7.20999V18.46C106.603 19 106.653 19.51 106.753 19.99C106.873 20.45 107.073 20.83 107.353 21.13C107.653 21.41 108.073 21.55 108.613 21.55C109.173 21.55 109.603 21.4 109.903 21.1C110.203 20.8 110.413 20.41 110.533 19.93C110.653 19.45 110.713 18.94 110.713 18.4V15.55H108.523V12.4H115.543V25H112.003L111.703 22.99C111.383 23.67 110.913 24.24 110.293 24.7C109.673 25.14 108.833 25.36 107.773 25.36Z" fill="#A276FF"/>
<path d="M107.773 25.36C106.093 25.36 104.763 25.01 103.783 24.31C102.823 23.61 102.133 22.63 101.713 21.37C101.313 20.09 101.113 18.62 101.113 16.96V8.8C101.113 7.07999 101.333 5.59 101.773 4.33C102.213 3.07 102.963 2.1 104.023 1.42C105.103 0.719995 106.563 0.369995 108.403 0.369995C110.203 0.369995 111.613 0.669995 112.633 1.27C113.673 1.87 114.413 2.7 114.853 3.76C115.293 4.82 115.513 6.06 115.513 7.47999V9.04H110.263V7.05999C110.263 6.54 110.223 6.06 110.143 5.62C110.083 5.18 109.923 4.83 109.663 4.56999C109.423 4.28999 109.023 4.14999 108.463 4.14999C107.883 4.14999 107.463 4.31 107.203 4.63C106.943 4.93 106.773 5.31 106.693 5.77C106.633 6.23 106.603 6.71 106.603 7.20999V18.46C106.603 19 106.653 19.51 106.753 19.99C106.873 20.45 107.073 20.83 107.353 21.13C107.653 21.41 108.073 21.55 108.613 21.55C109.173 21.55 109.603 21.4 109.903 21.1C110.203 20.8 110.413 20.41 110.533 19.93C110.653 19.45 110.713 18.94 110.713 18.4V15.55H108.523V12.4H115.543V25H112.003L111.703 22.99C111.383 23.67 110.913 24.24 110.293 24.7C109.673 25.14 108.833 25.36 107.773 25.36Z" fill="#A276FF"/>
<path d="M127.214 25.36C125.394 25.36 123.954 25.04 122.894 24.4C121.834 23.76 121.074 22.84 120.614 21.64C120.154 20.44 119.924 19.01 119.924 17.35V8.31999C119.924 6.64 120.154 5.20999 120.614 4.02999C121.074 2.85 121.834 1.95 122.894 1.33C123.954 0.689995 125.394 0.369995 127.214 0.369995C129.054 0.369995 130.504 0.689995 131.564 1.33C132.644 1.95 133.414 2.85 133.874 4.02999C134.334 5.20999 134.564 6.64 134.564 8.31999V17.35C134.564 19.01 134.334 20.44 133.874 21.64C133.414 22.84 132.644 23.76 131.564 24.4C130.504 25.04 129.054 25.36 127.214 25.36ZM127.214 21.55C127.774 21.55 128.184 21.41 128.444 21.13C128.704 20.85 128.874 20.49 128.954 20.05C129.034 19.61 129.074 19.16 129.074 18.7V7C129.074 6.52 129.034 6.07 128.954 5.64999C128.874 5.20999 128.704 4.84999 128.444 4.56999C128.184 4.28999 127.774 4.14999 127.214 4.14999C126.694 4.14999 126.304 4.28999 126.044 4.56999C125.784 4.84999 125.614 5.20999 125.534 5.64999C125.454 6.07 125.414 6.52 125.414 7V18.7C125.414 19.16 125.444 19.61 125.504 20.05C125.584 20.49 125.744 20.85 125.984 21.13C126.244 21.41 126.654 21.55 127.214 21.55Z" fill="#A276FF"/>
<path d="M127.214 25.36C125.394 25.36 123.954 25.04 122.894 24.4C121.834 23.76 121.074 22.84 120.614 21.64C120.154 20.44 119.924 19.01 119.924 17.35V8.31999C119.924 6.64 120.154 5.20999 120.614 4.02999C121.074 2.85 121.834 1.95 122.894 1.33C123.954 0.689995 125.394 0.369995 127.214 0.369995C129.054 0.369995 130.504 0.689995 131.564 1.33C132.644 1.95 133.414 2.85 133.874 4.02999C134.334 5.20999 134.564 6.64 134.564 8.31999V17.35C134.564 19.01 134.334 20.44 133.874 21.64C133.414 22.84 132.644 23.76 131.564 24.4C130.504 25.04 129.054 25.36 127.214 25.36ZM127.214 21.55C127.774 21.55 128.184 21.41 128.444 21.13C128.704 20.85 128.874 20.49 128.954 20.05C129.034 19.61 129.074 19.16 129.074 18.7V7C129.074 6.52 129.034 6.07 128.954 5.64999C128.874 5.20999 128.704 4.84999 128.444 4.56999C128.184 4.28999 127.774 4.14999 127.214 4.14999C126.694 4.14999 126.304 4.28999 126.044 4.56999C125.784 4.84999 125.614 5.20999 125.534 5.64999C125.454 6.07 125.414 6.52 125.414 7V18.7C125.414 19.16 125.444 19.61 125.504 20.05C125.584 20.49 125.744 20.85 125.984 21.13C126.244 21.41 126.654 21.55 127.214 21.55Z" fill="#A276FF"/>
</svg>
